<?xml version="1.0" encoding="UTF-8" standalone="no"?>
<!DOCTYPE svg PUBLIC "-//W3C//DTD SVG 1.1//EN" "http://www.w3.org/Graphics/SVG/1.1/DTD/svg11.dtd">
<!-- 由 Microsoft Visio, SVG Export 生成 tables.svg Page-1 -->
<svg xmlns="http://www.w3.org/2000/svg" xmlns:xlink="http://www.w3.org/1999/xlink" xmlns:ev="http://www.w3.org/2001/xml-events"
		width="10.5837in" height="12.8147in" viewBox="0 0 762.03 922.659" xml:space="preserve" color-interpolation-filters="sRGB"
		class="st17">
	<style type="text/css">
	<![CDATA[
		.st1 {fill:url(#grad0-4);stroke:#4f87bb;stroke-width:0.75}
		.st2 {fill:#ff0000;font-family:Arial;font-size:0.833336em}
		.st3 {visibility:visible}
		.st4 {fill:#5b9bd5;fill-opacity:0.25;filter:url(#filter_2);stroke:#5b9bd5;stroke-opacity:0.25}
		.st5 {fill:#4f87bb;stroke:#40709c;stroke-width:0.75}
		.st6 {fill:#000000;font-family:Arial;font-size:0.833336em}
		.st7 {fill:#ff0000;font-family:Meiryo UI;font-size:0.833336em}
		.st8 {fill:#000000;font-size:1em}
		.st9 {fill:url(#grad0-101);stroke:#4f87bb;stroke-width:0.75}
		.st10 {marker-end:url(#mrkr4-124);stroke:#5b9bd5;stroke-linecap:round;stroke-linejoin:round;stroke-width:1}
		.st11 {fill:#5b9bd5;fill-opacity:1;stroke:#5b9bd5;stroke-opacity:1;stroke-width:0.28409090909091}
		.st12 {font-size:1em}
		.st13 {fill:none;stroke:none;stroke-width:0.25}
		.st14 {fill:#ff0000;font-family:Calibri;font-size:1.00001em}
		.st15 {fill:none;stroke:#ff0000;stroke-dasharray:22.5,13.5;stroke-width:1.5}
		.st16 {fill:#000000;font-family:Meiryo UI;font-size:0.833336em}
		.st17 {fill:none;fill-rule:evenodd;font-size:12px;overflow:visible;stroke-linecap:square;stroke-miterlimit:3}
	]]>
	</style>

	<defs id="Patterns_And_Gradients">
		<linearGradient id="grad0-4" x1="0" y1="0" x2="1" y2="0" gradientTransform="rotate(60 0.5 0.5)">
			<stop offset="0" stop-color="#e9eff7" stop-opacity="1"/>
			<stop offset="0.24" stop-color="#f4f7fb" stop-opacity="1"/>
			<stop offset="0.54" stop-color="#feffff" stop-opacity="1"/>
		</linearGradient>
		<linearGradient id="grad0-101" x1="0" y1="0" x2="1" y2="0" gradientTransform="rotate(60 0.5 0.5)">
			<stop offset="0" stop-color="#c2d1e9" stop-opacity="1"/>
			<stop offset="0.24" stop-color="#ced8ec" stop-opacity="1"/>
			<stop offset="0.54" stop-color="#3382c8" stop-opacity="1"/>
		</linearGradient>
	</defs>
	<defs id="Markers">
		<g id="lend4">
			<path d="M 2 1 L 0 0 L 2 -1 L 2 1 " style="stroke:none"/>
		</g>
		<marker id="mrkr4-124" class="st11" refX="-7.04" orient="auto" markerUnits="strokeWidth" overflow="visible">
			<use xlink:href="#lend4" transform="scale(-3.52,-3.52) "/>
		</marker>
	</defs>
	<defs id="Filters">
		<filter id="filter_2">
			<feGaussianBlur stdDeviation="2"/>
		</filter>
	</defs>
	<g>
		<title>页-1</title>
		<g id="shape1-1" transform="translate(209.776,-700.456)">
			<title>圆角的矩形</title>
			<desc>core_rhymes</desc>
			<path d="M11.37 922.66 L102.37 922.66 A11.3738 11.3738 -180 0 0 113.74 911.29 L113.74 905.6 A11.3738 11.3738 -180 0 0
						 102.37 894.22 L11.37 894.22 A11.3738 11.3738 -180 0 0 0 905.6 L0 911.29 A11.3738 11.3738 -180 0 0 11.37
						 922.66 Z" class="st1"/>
			<text x="27.97" y="911.44" class="st2">core_rhymes</text>		</g>
		<g id="shape2-6" transform="translate(402.576,-700.456)">
			<title>圆角的矩形.2</title>
			<desc>core_small_rhymes</desc>
			<path d="M11.37 922.66 L102.37 922.66 A11.3738 11.3738 -180 0 0 113.74 911.29 L113.74 905.6 A11.3738 11.3738 -180 0 0
						 102.37 894.22 L11.37 894.22 A11.3738 11.3738 -180 0 0 0 905.6 L0 911.29 A11.3738 11.3738 -180 0 0 11.37
						 922.66 Z" class="st1"/>
			<text x="13.52" y="911.44" class="st2">core_small_rhymes</text>		</g>
		<g id="shape3-10" transform="translate(595.376,-700.456)">
			<title>圆角的矩形.3</title>
			<desc>core_char_entities</desc>
			<path d="M11.37 922.66 L102.37 922.66 A11.3738 11.3738 -180 0 0 113.74 911.29 L113.74 905.6 A11.3738 11.3738 -180 0 0
						 102.37 894.22 L11.37 894.22 A11.3738 11.3738 -180 0 0 -0 905.6 L0 911.29 A11.3738 11.3738 -180 0 0 11.37
						 922.66 Z" class="st1"/>
			<text x="16.01" y="911.44" class="st2">core_char_entities</text>		</g>
		<g id="shape4-14" transform="translate(323.516,-714.674)">
			<title>现代箭头</title>
			<g id="shadow4-15" transform="matrix(1,0,0,1,0.345598,1.97279)" class="st3">
				<path d="M0 922.66 L23.03 915.57 L23.36 916.66 L5.7 922.09 L79.06 922.09 L79.06 923.23 L5.7 923.23 L23.36 928.66
							 L23.03 929.75 L0 922.66 Z" class="st4"/>
			</g>
			<path d="M0 922.66 L23.03 915.57 L23.36 916.66 L5.7 922.09 L79.06 922.09 L79.06 923.23 L5.7 923.23 L23.36 928.66 L23.03
						 929.75 L0 922.66 Z" class="st5"/>
		</g>
		<g id="shape5-19" transform="translate(516.316,-714.674)">
			<title>现代箭头.5</title>
			<g id="shadow5-20" transform="matrix(1,0,0,1,0.345598,1.97279)" class="st3">
				<path d="M0 922.66 L23.03 915.57 L23.36 916.66 L5.7 922.09 L79.06 922.09 L79.06 923.23 L5.7 923.23 L23.36 928.66
							 L23.03 929.75 L0 922.66 Z" class="st4"/>
			</g>
			<path d="M0 922.66 L23.03 915.57 L23.36 916.66 L5.7 922.09 L79.06 922.09 L79.06 923.23 L5.7 923.23 L23.36 928.66 L23.03
						 929.75 L0 922.66 Z" class="st5"/>
		</g>
		<g id="shape6-24" transform="translate(209.421,-585.463)">
			<title>圆角的矩形.6</title>
			<desc>extd_rhymes</desc>
			<path d="M11.37 922.66 L102.37 922.66 A11.3738 11.3738 -180 0 0 113.74 911.29 L113.74 905.6 A11.3738 11.3738 -180 0 0
						 102.37 894.22 L11.37 894.22 A11.3738 11.3738 -180 0 0 0 905.6 L0 911.29 A11.3738 11.3738 -180 0 0 11.37
						 922.66 Z" class="st1"/>
			<text x="28.25" y="911.44" class="st6">extd_rhymes</text>		</g>
		<g id="shape7-28" transform="translate(209.421,-470.47)">
			<title>圆角的矩形.7</title>
			<desc>extd_subgroups</desc>
			<path d="M11.37 922.66 L102.37 922.66 A11.3738 11.3738 -180 0 0 113.74 911.29 L113.74 905.6 A11.3738 11.3738 -180 0 0
						 102.37 894.22 L11.37 894.22 A11.3738 11.3738 -180 0 0 0 905.6 L0 911.29 A11.3738 11.3738 -180 0 0 11.37
						 922.66 Z" class="st1"/>
			<text x="21.29" y="911.44" class="st6">extd_subgroups</text>		</g>
		<g id="shape11-32" transform="translate(-656.368,423.754) rotate(-90)">
			<title>现代箭头.11</title>
			<g id="shadow11-33" transform="matrix(1,0,0,1,-1.97279,0.345598)" class="st3">
				<path d="M0 922.66 L23.03 915.57 L23.36 916.66 L5.7 922.09 L86.56 922.09 L86.56 923.23 L5.7 923.23 L23.36 928.66
							 L23.03 929.75 L0 922.66 Z" class="st4"/>
			</g>
			<path d="M0 922.66 L23.03 915.57 L23.36 916.66 L5.7 922.09 L86.56 922.09 L86.56 923.23 L5.7 923.23 L23.36 928.66 L23.03
						 929.75 L0 922.66 Z" class="st5"/>
		</g>
		<g id="shape12-37" transform="translate(-656.36,304.979) rotate(-89.7651)">
			<title>现代箭头.12</title>
			<g id="shadow12-38" transform="matrix(1,0,0,1,-1.97136,0.353682)" class="st3">
				<path d="M0 922.66 L23.03 915.57 L23.36 916.66 L5.7 922.09 L86.56 922.09 L86.56 923.23 L5.7 923.23 L23.36 928.66
							 L23.03 929.75 L0 922.66 Z" class="st4"/>
			</g>
			<path d="M0 922.66 L23.03 915.57 L23.36 916.66 L5.7 922.09 L86.56 922.09 L86.56 923.23 L5.7 923.23 L23.36 928.66 L23.03
						 929.75 L0 922.66 Z" class="st5"/>
		</g>
		<g id="shape13-42" transform="translate(402.62,-585.463)">
			<title>圆角的矩形.13</title>
			<desc>extd_small_rhymes</desc>
			<path d="M11.37 922.66 L102.37 922.66 A11.3738 11.3738 -180 0 0 113.74 911.29 L113.74 905.6 A11.3738 11.3738 -180 0 0
						 102.37 894.22 L11.37 894.22 A11.3738 11.3738 -180 0 0 -0 905.6 L0 911.29 A11.3738 11.3738 -180 0 0 11.37
						 922.66 Z" class="st1"/>
			<text x="13.8" y="911.44" class="st6">extd_small_rhymes</text>		</g>
		<g id="shape15-46" transform="translate(-463.169,309.231) rotate(-90.0292)">
			<title>现代箭头.15</title>
			<g id="shadow15-47" transform="matrix(1,0,0,1,-1.97297,0.344594)" class="st3">
				<path d="M0 922.66 L23.03 915.57 L23.36 916.66 L5.7 922.09 L86.56 922.09 L86.56 923.23 L5.7 923.23 L23.36 928.66
							 L23.03 929.75 L0 922.66 Z" class="st4"/>
			</g>
			<path d="M0 922.66 L23.03 915.57 L23.36 916.66 L5.7 922.09 L86.56 922.09 L86.56 923.23 L5.7 923.23 L23.36 928.66 L23.03
						 929.75 L0 922.66 Z" class="st5"/>
		</g>
		<g id="group25-51" transform="translate(377.861,-764.262)">
			<title>折角形.25</title>
			<desc>* id * name: 小韻 * of_rhyme: 對應韻 * initial: 聲母三十八聲母系統 * roundi...</desc>
			<g id="shape25-52">
				<path d="M0 922.66 L143.94 922.66 L163.17 892.78 L163.17 795.1 L0 795.1 L0 922.66 Z" class="st1"/>
				<text x="4" y="819.88" class="st7">* id <tspan x="4" dy="1.2em" class="st8">* </tspan><tspan class="st8">name</tspan><tspan
							class="st8">: </tspan><tspan class="st8">小韻 </tspan><tspan x="4" dy="1.2em" class="st8">* </tspan><tspan
							class="st8">of</tspan><tspan class="st8">_</tspan><tspan class="st8">rhyme</tspan><tspan class="st8">: </tspan><tspan
							class="st8">對應韻 </tspan><tspan x="4" dy="1.2em" class="st8">* </tspan><tspan class="st8">initial</tspan><tspan
							class="st8">: </tspan><tspan class="st8">聲母</tspan><tspan class="st8">（</tspan><tspan class="st8">三十八聲母系統</tspan><tspan
							class="st8">） </tspan><tspan x="4" dy="1.2em" class="st8">* </tspan><tspan class="st8">rounding</tspan><tspan
							class="st8">: </tspan><tspan class="st8">開合 </tspan><tspan x="4" dy="1.2em" class="st8">* </tspan><tspan
							class="st8">division</tspan><tspan class="st8">: </tspan><tspan class="st8">等</tspan><tspan class="st8">（</tspan><tspan
							class="st8">1</tspan><tspan class="st8">-</tspan><tspan class="st8">4</tspan><tspan class="st8">） </tspan><tspan
							x="4" dy="1.2em" class="st8">* </tspan><tspan class="st8">upper</tspan><tspan class="st8">_</tspan><tspan
							class="st8">char</tspan><tspan class="st8">: </tspan><tspan class="st8">反切上字 </tspan><tspan x="4"
							dy="1.2em" class="st8">* </tspan><tspan class="st8">lower</tspan><tspan class="st8">_</tspan><tspan
							class="st8">char</tspan><tspan class="st8">: </tspan><tspan class="st8">反切下字</tspan></text>			</g>
			<g id="shape26-98" transform="translate(135.974,1.13687E-13)">
				<title>工作表.26</title>
				<path d="M7.97 922.66 L27.19 892.78 L0 905.16 L7.97 922.66 Z" class="st9"/>
			</g>
		</g>
		<g id="group28-102" transform="translate(185.062,-764.262)">
			<title>折角形.28</title>
			<desc>* name: 韻 * tone: 聲調1-4</desc>
			<g id="shape28-103">
				<path d="M0 922.66 L143.94 922.66 L163.17 892.78 L163.17 795.1 L0 795.1 L0 922.66 Z" class="st1"/>
				<text x="4" y="855.88" class="st7">* name: 韻 <tspan x="4" dy="1.2em" class="st8">* </tspan><tspan class="st8">tone</tspan><tspan
							class="st8">: </tspan><tspan class="st8">聲調</tspan><tspan class="st8">（</tspan><tspan class="st8">1</tspan><tspan
							class="st8">-</tspan><tspan class="st8">4</tspan><tspan class="st8">）</tspan></text>			</g>
			<g id="shape29-116" transform="translate(135.974,1.13687E-13)">
				<title>工作表.29</title>
				<path d="M7.97 922.66 L27.19 892.78 L0 905.16 L7.97 922.66 Z" class="st9"/>
			</g>
		</g>
		<g id="shape31-119" transform="translate(259.56,-764.262)">
			<title>动态连接线</title>
			<path d="M7.09 922.66 L7.09 950.99" class="st10"/>
		</g>
		<g id="shape32-125" transform="translate(452.359,-764.262)">
			<title>动态连接线.32</title>
			<path d="M7.09 922.66 L7.09 950.99" class="st10"/>
		</g>
		<g id="group33-130" transform="translate(570.661,-764.262)">
			<title>折角形.33</title>
			<desc>* of_small_rhyme: 對應小韻 * num_in_small_rhyme: 在小韻中的序號 * name: ...</desc>
			<g id="shape33-131">
				<path d="M0 922.66 L143.94 922.66 L163.17 892.78 L163.17 795.1 L0 795.1 L0 922.66 Z" class="st1"/>
				<text x="4" y="837.88" class="st7">* of_small_rhyme: 對應小韻 <tspan x="4" dy="1.2em" class="st12">* </tspan>num_in_small_rhyme: 在小韻<tspan
							x="4" dy="1.2em" class="st12">中的序號 </tspan><tspan x="4" dy="1.2em" class="st8">* </tspan><tspan
							class="st8">name</tspan><tspan class="st8">: </tspan><tspan class="st8">字頭 </tspan><tspan x="4"
							dy="1.2em" class="st8">* </tspan><tspan class="st8">explanation</tspan><tspan class="st8">: </tspan><tspan
							class="st8">解釋</tspan></text>			</g>
			<g id="shape34-145" transform="translate(135.974,1.13687E-13)">
				<title>工作表.34</title>
				<path d="M7.97 922.66 L27.19 892.78 L0 905.16 L7.97 922.66 Z" class="st9"/>
			</g>
		</g>
		<g id="shape35-148" transform="translate(645.159,-764.262)">
			<title>动态连接线.35</title>
			<path d="M7.09 922.66 L7.09 950.99" class="st10"/>
		</g>
		<g id="group37-153" transform="translate(28.624,-553.704)">
			<title>折角形.37</title>
			<desc>* of_rhyme: 韻 * subgroup: 韻系平入</desc>
			<g id="shape37-154">
				<path d="M0 922.66 L144.36 922.66 L163.17 896.36 L163.17 830.71 L0 830.71 L0 922.66 Z" class="st1"/>
				<text x="4" y="873.68" class="st7">* of_rhyme: 韻 <tspan x="4" dy="1.2em" class="st8">* </tspan><tspan class="st8">subgroup</tspan><tspan
							class="st8">: </tspan><tspan class="st8">韻系</tspan><tspan class="st8">（</tspan><tspan class="st8">平入</tspan><tspan
							class="st8">）</tspan></text>			</g>
			<g id="shape38-165" transform="translate(138.278,1.13687E-13)">
				<title>工作表.38</title>
				<path d="M6.08 922.66 L24.89 896.36 L0 904.86 L6.08 922.66 Z" class="st9"/>
			</g>
		</g>
		<g id="group43-168" transform="translate(28.624,-438.711)">
			<title>折角形.43</title>
			<desc>* of_subgroup: 韻系平入 * rhyme_group: 韻系平</desc>
			<g id="shape43-169">
				<path d="M0 922.66 L144.36 922.66 L163.17 896.36 L163.17 830.71 L0 830.71 L0 922.66 Z" class="st1"/>
				<text x="4" y="873.68" class="st7">* of_subgroup: 韻系（平入） <tspan x="4" dy="1.2em" class="st8">* </tspan><tspan
							class="st8">rhyme</tspan><tspan class="st8">_</tspan><tspan class="st8">group</tspan><tspan class="st8">: </tspan><tspan
							class="st8">韻系</tspan><tspan class="st8">（</tspan><tspan class="st8">平</tspan><tspan class="st8">）</tspan></text>			</g>
			<g id="shape44-182" transform="translate(138.278,1.13687E-13)">
				<title>工作表.44</title>
				<path d="M6.08 922.66 L24.89 896.36 L0 904.86 L6.08 922.66 Z" class="st9"/>
			</g>
		</g>
		<g id="shape46-185" transform="translate(209.421,-355.477)">
			<title>圆角的矩形.46</title>
			<desc>extd_classes</desc>
			<path d="M11.37 922.66 L102.37 922.66 A11.3738 11.3738 -180 0 0 113.74 911.29 L113.74 905.6 A11.3738 11.3738 -180 0 0
						 102.37 894.22 L11.37 894.22 A11.3738 11.3738 -180 0 0 0 905.6 L0 911.29 A11.3738 11.3738 -180 0 0 11.37
						 922.66 Z" class="st1"/>
			<text x="27.97" y="911.44" class="st6">extd_classes</text>		</g>
		<g id="shape47-189" transform="translate(-656.368,538.747) rotate(-90)">
			<title>现代箭头.47</title>
			<g id="shadow47-190" transform="matrix(1,0,0,1,-1.97279,0.345598)" class="st3">
				<path d="M0 922.66 L23.03 915.57 L23.36 916.66 L5.7 922.09 L86.56 922.09 L86.56 923.23 L5.7 923.23 L23.36 928.66
							 L23.03 929.75 L0 922.66 Z" class="st4"/>
			</g>
			<path d="M0 922.66 L23.03 915.57 L23.36 916.66 L5.7 922.09 L86.56 922.09 L86.56 923.23 L5.7 923.23 L23.36 928.66 L23.03
						 929.75 L0 922.66 Z" class="st5"/>
		</g>
		<g id="group48-194" transform="translate(28.624,-323.718)">
			<title>折角形.48</title>
			<desc>* of_rhyme_group: 韻系平 * class: 攝</desc>
			<g id="shape48-195">
				<path d="M0 922.66 L144.36 922.66 L163.17 896.36 L163.17 830.71 L0 830.71 L0 922.66 Z" class="st1"/>
				<text x="4" y="873.68" class="st7">* of_rhyme_group: 韻系（平） <tspan x="4" dy="1.2em" class="st8">* </tspan><tspan
							class="st8">class</tspan><tspan class="st8">: </tspan><tspan class="st8">攝</tspan></text>			</g>
			<g id="shape49-203" transform="translate(138.278,1.13687E-13)">
				<title>工作表.49</title>
				<path d="M6.08 922.66 L24.89 896.36 L0 904.86 L6.08 922.66 Z" class="st9"/>
			</g>
		</g>
		<g id="shape50-206" transform="translate(191.793,-592.594)">
			<title>动态连接线.50</title>
			<path d="M0 915.57 L10.59 915.57" class="st10"/>
		</g>
		<g id="shape51-211" transform="translate(191.793,-477.601)">
			<title>动态连接线.51</title>
			<path d="M0 915.57 L10.59 915.57" class="st10"/>
		</g>
		<g id="shape52-216" transform="translate(191.793,-362.608)">
			<title>动态连接线.52</title>
			<path d="M0 915.57 L10.59 915.57" class="st10"/>
		</g>
		<g id="group54-221" transform="translate(377.906,-476.717)">
			<title>折角形.54</title>
			<desc>* of_small_rhyme: 對應小韻 * guyun: 古韻羅馬字 * younu: 有女羅馬字 * baxter...</desc>
			<g id="shape54-222">
				<path d="M0 922.66 L144.36 922.66 L163.17 896.36 L163.17 830.71 L0 830.71 L0 922.66 Z" class="st1"/>
				<text x="4" y="849.68" class="st7">* of_small_rhyme: 對應小韻 <tspan x="4" dy="1.2em" class="st8">* </tspan><tspan
							class="st8">guyun</tspan><tspan class="st8">:</tspan><tspan class="st8"> </tspan><tspan class="st8">古韻羅馬字 </tspan><tspan
							x="4" dy="1.2em" class="st8">* </tspan><tspan class="st8">younu</tspan><tspan class="st8">:</tspan><tspan
							class="st8"> </tspan><tspan class="st8">有女羅馬字 </tspan><tspan x="4" dy="1.2em" class="st8">* </tspan><tspan
							class="st8">baxter</tspan><tspan class="st8">:</tspan><tspan class="st8"> </tspan><tspan class="st8">Baxter </tspan><tspan
							x="4" dy="1.2em" class="st8">* </tspan><tspan class="st8">zhongzhou</tspan><tspan class="st8">:</tspan><tspan
							class="st8"> </tspan><tspan class="st8">推導中州音 </tspan><tspan x="4" dy="1.2em" class="st8">* </tspan><tspan
							class="st8">putonghua</tspan><tspan class="st8">:</tspan><tspan class="st8"> </tspan><tspan class="st8">推導普通話</tspan></text>			</g>
			<g id="shape55-251" transform="translate(138.278,1.13687E-13)">
				<title>工作表.55</title>
				<path d="M6.08 922.66 L24.89 896.36 L0 904.86 L6.08 922.66 Z" class="st9"/>
			</g>
		</g>
		<g id="shape68-254" transform="translate(452.404,-568.671)">
			<title>动态连接线.68</title>
			<path d="M7.09 922.66 L7.09 912.91" class="st10"/>
		</g>
		<g id="shape70-259" transform="translate(36.9417,-259.695)">
			<title>工作表.70</title>
			<desc>* red texts stand for primary key</desc>
			<rect x="0" y="894.224" width="172.48" height="28.435" class="st13"/>
			<text x="4" y="909.02" class="st14">* red texts stand for primary key</text>		</g>
		<g id="shape71-262" transform="translate(19.5,-308.451)">
			<title>工作表.71</title>
			<path d="M0 922.66 L337.32 922.66 L337.32 327.95 L0 327.95 L0 922.66 Z" class="st15"/>
		</g>
		<g id="shape80-264" transform="translate(209.067,-217.131)">
			<title>圆角的矩形.80</title>
			<desc>full_rhymes</desc>
			<path d="M11.37 922.66 L102.37 922.66 A11.3738 11.3738 -180 0 0 113.74 911.29 L113.74 905.6 A11.3738 11.3738 -180 0 0
						 102.37 894.22 L11.37 894.22 A11.3738 11.3738 -180 0 0 0 905.6 L0 911.29 A11.3738 11.3738 -180 0 0 11.37
						 922.66 Z" class="st1"/>
			<text x="31.31" y="911.44" class="st6">full_rhymes</text>		</g>
		<g id="shape89-268" transform="translate(1188.77,616.808) rotate(90.1614)">
			<title>现代箭头.89</title>
			<g id="shadow89-269" transform="matrix(1,0,0,1,1.97181,-0.351155)" class="st3">
				<path d="M0 922.66 L23.03 915.57 L23.36 916.66 L5.7 922.09 L62.89 922.09 L62.89 923.23 L5.7 923.23 L23.36 928.66
							 L23.03 929.75 L0 922.66 Z" class="st4"/>
			</g>
			<path d="M0 922.66 L23.03 915.57 L23.36 916.66 L5.7 922.09 L62.89 922.09 L62.89 923.23 L5.7 923.23 L23.36 928.66 L23.03
						 929.75 L0 922.66 Z" class="st5"/>
		</g>
		<g id="shape91-273" transform="translate(369.012,-308.451)">
			<title>工作表.91</title>
			<path d="M0 922.66 L180.57 922.66 L180.57 327.95 L0 327.95 L0 922.66 Z" class="st15"/>
		</g>
		<g id="shape92-275" transform="translate(561.963,-308.451)">
			<title>工作表.92</title>
			<path d="M0 922.66 L180.57 922.66 L180.57 327.95 L0 327.95 L0 922.66 Z" class="st15"/>
		</g>
		<g id="shape93-277" transform="translate(402.425,-217.131)">
			<title>圆角的矩形.93</title>
			<desc>full_small_rhymes</desc>
			<path d="M11.37 922.66 L102.37 922.66 A11.3738 11.3738 -180 0 0 113.74 911.29 L113.74 905.6 A11.3738 11.3738 -180 0 0
						 102.37 894.22 L11.37 894.22 A11.3738 11.3738 -180 0 0 0 905.6 L0 911.29 A11.3738 11.3738 -180 0 0 11.37
						 922.66 Z" class="st1"/>
			<text x="16.86" y="911.44" class="st6">full_small_rhymes</text>		</g>
		<g id="shape138-281" transform="translate(595.783,-217.131)">
			<title>圆角的矩形.138</title>
			<desc>full_char_entities</desc>
			<path d="M11.37 922.66 L102.37 922.66 A11.3738 11.3738 -180 0 0 113.74 911.29 L113.74 905.6 A11.3738 11.3738 -180 0 0
						 102.37 894.22 L11.37 894.22 A11.3738 11.3738 -180 0 0 0 905.6 L0 911.29 A11.3738 11.3738 -180 0 0 11.37
						 922.66 Z" class="st1"/>
			<text x="19.35" y="911.44" class="st6">full_char_entities</text>		</g>
		<g id="shape139-285" transform="translate(1382.13,616.808) rotate(90.1614)">
			<title>现代箭头.139</title>
			<g id="shadow139-286" transform="matrix(1,0,0,1,1.97181,-0.351155)" class="st3">
				<path d="M0 922.66 L23.03 915.57 L23.36 916.66 L5.7 922.09 L62.89 922.09 L62.89 923.23 L5.7 923.23 L23.36 928.66
							 L23.03 929.75 L0 922.66 Z" class="st4"/>
			</g>
			<path d="M0 922.66 L23.03 915.57 L23.36 916.66 L5.7 922.09 L62.89 922.09 L62.89 923.23 L5.7 923.23 L23.36 928.66 L23.03
						 929.75 L0 922.66 Z" class="st5"/>
		</g>
		<g id="shape140-290" transform="translate(1575.49,616.808) rotate(90.1614)">
			<title>现代箭头.140</title>
			<g id="shadow140-291" transform="matrix(1,0,0,1,1.97181,-0.351155)" class="st3">
				<path d="M0 922.66 L23.03 915.57 L23.36 916.66 L5.7 922.09 L62.89 922.09 L62.89 923.23 L5.7 923.23 L23.36 928.66
							 L23.03 929.75 L0 922.66 Z" class="st4"/>
			</g>
			<path d="M0 922.66 L23.03 915.57 L23.36 916.66 L5.7 922.09 L62.89 922.09 L62.89 923.23 L5.7 923.23 L23.36 928.66 L23.03
						 929.75 L0 922.66 Z" class="st5"/>
		</g>
		<g id="group141-295" transform="translate(377.711,-18.75)">
			<title>折角形.141</title>
			<desc>* id * small_rhyme: 小韻 * of_rhyme: 對應韻 * initial: 聲母三十八聲母系統 *...</desc>
			<g id="shape141-296">
				<path d="M0 922.66 L128.05 922.66 L163.17 896.64 L163.17 749.12 L0 749.12 L0 922.66 Z" class="st1"/>
				<text x="4" y="766.89" class="st16">* id <tspan x="4" dy="1.2em" class="st12">* </tspan>small_rhyme: 小韻 <tspan
							x="4" dy="1.2em" class="st12">* </tspan>of_rhyme: 對應韻 <tspan x="4" dy="1.2em" class="st12">* </tspan>initial: 聲母（三十八聲母系統） <tspan
							x="4" dy="1.2em" class="st12">* </tspan>rounding: 開合 <tspan x="4" dy="1.2em" class="st12">* </tspan>division: 等（1-4） <tspan
							x="4" dy="1.2em" class="st12">* </tspan>upper_char: 反切上字 <tspan x="4" dy="1.2em" class="st12">* </tspan>lower_char: 反切下字 <tspan
							x="4" dy="1.2em" class="st12">* </tspan>guyun: 古韻羅馬字 <tspan x="4" dy="1.2em" class="st12">* </tspan>younu: 有女羅馬字 <tspan
							x="4" dy="1.2em" class="st12">* </tspan>baxter: Baxter <tspan x="4" dy="1.2em" class="st12">* </tspan>zhongzhou: 推導中州音 <tspan
							x="4" dy="1.2em" class="st12">* </tspan>putonghua: 推導普通話</text>			</g>
			<g id="shape142-312" transform="translate(128.051,1.13687E-13)">
				<title>工作表.142</title>
				<path d="M0 922.66 L35.12 896.64 L10.23 889.06 L0 922.66 Z" class="st9"/>
			</g>
		</g>
		<g id="shape143-315" transform="translate(452.209,-192.286)">
			<title>动态连接线.143</title>
			<path d="M7.09 922.66 L7.09 904.85" class="st10"/>
		</g>
		<g id="group147-320" transform="translate(571.069,-18.75)">
			<title>折角形.147</title>
			<desc>* of_small_rhyme: 對應小韻 * num_in_small_rhyme: 在小韻中的序號 * name: ...</desc>
			<g id="shape147-321">
				<path d="M0 922.66 L128.05 922.66 L163.17 896.64 L163.17 749.12 L0 749.12 L0 922.66 Z" class="st1"/>
				<text x="4" y="814.89" class="st16">* of_small_rhyme: 對應小韻 <tspan x="4" dy="1.2em" class="st12">* </tspan>num_in_small_rhyme: 在小韻<tspan
							x="4" dy="1.2em" class="st12">中的序號 </tspan><tspan x="4" dy="1.2em" class="st12">* </tspan>name: 字頭 <tspan
							x="4" dy="1.2em" class="st12">* </tspan>explanation: 解釋</text>			</g>
			<g id="shape148-329" transform="translate(128.051,1.13687E-13)">
				<title>工作表.148</title>
				<path d="M0 922.66 L35.12 896.64 L10.23 889.06 L0 922.66 Z" class="st9"/>
			</g>
		</g>
		<g id="shape149-332" transform="translate(645.567,-192.286)">
			<title>动态连接线.149</title>
			<path d="M7.09 922.66 L7.09 904.85" class="st10"/>
		</g>
		<g id="group152-337" transform="translate(184.352,-18.75)">
			<title>折角形.152</title>
			<desc>* rhyme: 韻 * tone: 聲調1-4 * subgroup: 韻系平入 * rhyme_group: 韻系平 ...</desc>
			<g id="shape152-338">
				<path d="M0 922.66 L128.05 922.66 L163.17 896.64 L163.17 749.12 L0 749.12 L0 922.66 Z" class="st1"/>
				<text x="4" y="814.89" class="st16">* rhyme: 韻 <tspan x="4" dy="1.2em" class="st12">* </tspan>tone: 聲調（1-4） <tspan
							x="4" dy="1.2em" class="st12">* </tspan>subgroup: 韻系（平入） <tspan x="4" dy="1.2em" class="st12">* </tspan>rhyme_group: 韻系（平） <tspan
							x="4" dy="1.2em" class="st12">* </tspan>class: 攝</text>			</g>
			<g id="shape153-346" transform="translate(128.051,1.13687E-13)">
				<title>工作表.153</title>
				<path d="M0 922.66 L35.12 896.64 L10.23 889.06 L0 922.66 Z" class="st9"/>
			</g>
		</g>
		<g id="shape155-349" transform="translate(258.85,-192.286)">
			<title>动态连接线.155</title>
			<path d="M7.09 922.66 L7.09 904.85" class="st10"/>
		</g>
	</g>
</svg>
